<svg width="300" height="600" viewBox="0 0 300 600" fill="none" xmlns="http://www.w3.org/2000/svg">
<g filter="url(#filter0_dd_4016_412)">
<mask id="path-1-inside-1_4016_412" fill="white">
<path fill-rule="evenodd" clip-rule="evenodd" d="M300 24.2433C300 21.7558 297.488 20 295 20C286.716 20 280 13.2843 280 5C280 2.51247 278.244 0 275.757 0H24.2433C21.7558 0 20 2.51246 20 5C20 13.2843 13.2843 20 5 20C2.51246 20 0 21.7558 0 24.2433V468.757C0 471.244 2.51247 473 5 473C13.2843 473 20 479.716 20 488C20 496.284 13.2843 503 5 503C2.51247 503 0 504.756 0 507.243V575.757C0 578.244 2.51245 580 5 580C13.2843 580 20 586.716 20 595C20 597.488 21.7558 600 24.2433 600H275.757C278.244 600 280 597.488 280 595C280 586.716 286.716 580 295 580C297.488 580 300 578.244 300 575.757V507.243C300 504.756 297.488 503 295 503C286.716 503 280 496.284 280 488C280 479.716 286.716 473 295 473C297.488 473 300 471.244 300 468.757V24.2433ZM280 487C280 487.552 279.552 488 279 488H273C272.448 488 272 487.552 272 487C272 486.448 272.448 486 273 486H279C279.552 486 280 486.448 280 487ZM267 488C267.552 488 268 487.552 268 487C268 486.448 267.552 486 267 486H261C260.448 486 260 486.448 260 487C260 487.552 260.448 488 261 488H267ZM256 487C256 487.552 255.552 488 255 488H249C248.448 488 248 487.552 248 487C248 486.448 248.448 486 249 486H255C255.552 486 256 486.448 256 487ZM243 488C243.552 488 244 487.552 244 487C244 486.448 243.552 486 243 486H237C236.448 486 236 486.448 236 487C236 487.552 236.448 488 237 488H243ZM232 487C232 487.552 231.552 488 231 488H225C224.448 488 224 487.552 224 487C224 486.448 224.448 486 225 486H231C231.552 486 232 486.448 232 487ZM219 488C219.552 488 220 487.552 220 487C220 486.448 219.552 486 219 486H213C212.448 486 212 486.448 212 487C212 487.552 212.448 488 213 488H219ZM208 487C208 487.552 207.552 488 207 488H201C200.448 488 200 487.552 200 487C200 486.448 200.448 486 201 486H207C207.552 486 208 486.448 208 487ZM195 488C195.552 488 196 487.552 196 487C196 486.448 195.552 486 195 486H189C188.448 486 188 486.448 188 487C188 487.552 188.448 488 189 488H195ZM184 487C184 487.552 183.552 488 183 488H177C176.448 488 176 487.552 176 487C176 486.448 176.448 486 177 486H183C183.552 486 184 486.448 184 487ZM171 488C171.552 488 172 487.552 172 487C172 486.448 171.552 486 171 486H165C164.448 486 164 486.448 164 487C164 487.552 164.448 488 165 488H171ZM160 487C160 487.552 159.552 488 159 488H153C152.448 488 152 487.552 152 487C152 486.448 152.448 486 153 486H159C159.552 486 160 486.448 160 487ZM147 488C147.552 488 148 487.552 148 487C148 486.448 147.552 486 147 486H141C140.448 486 140 486.448 140 487C140 487.552 140.448 488 141 488H147ZM136 487C136 487.552 135.552 488 135 488H129C128.448 488 128 487.552 128 487C128 486.448 128.448 486 129 486H135C135.552 486 136 486.448 136 487ZM123 488C123.552 488 124 487.552 124 487C124 486.448 123.552 486 123 486H117C116.448 486 116 486.448 116 487C116 487.552 116.448 488 117 488H123ZM112 487C112 487.552 111.552 488 111 488H105C104.448 488 104 487.552 104 487C104 486.448 104.448 486 105 486H111C111.552 486 112 486.448 112 487ZM99 488C99.5523 488 100 487.552 100 487C100 486.448 99.5523 486 99 486H93C92.4477 486 92 486.448 92 487C92 487.552 92.4477 488 93 488H99ZM88 487C88 487.552 87.5523 488 87 488H81C80.4477 488 80 487.552 80 487C80 486.448 80.4477 486 81 486H87C87.5523 486 88 486.448 88 487ZM75 488C75.5523 488 76 487.552 76 487C76 486.448 75.5523 486 75 486H69C68.4477 486 68 486.448 68 487C68 487.552 68.4477 488 69 488H75ZM64 487C64 487.552 63.5523 488 63 488H57C56.4477 488 56 487.552 56 487C56 486.448 56.4477 486 57 486H63C63.5523 486 64 486.448 64 487ZM51 488C51.5523 488 52 487.552 52 487C52 486.448 51.5523 486 51 486H45C44.4477 486 44 486.448 44 487C44 487.552 44.4477 488 45 488H51ZM40 487C40 487.552 39.5523 488 39 488H33C32.4477 488 32 487.552 32 487C32 486.448 32.4477 486 33 486H39C39.5523 486 40 486.448 40 487ZM27 488C27.5523 488 28 487.552 28 487C28 486.448 27.5523 486 27 486H21C20.4477 486 20 486.448 20 487C20 487.552 20.4477 488 21 488H27Z"/>
</mask>
<path fill-rule="evenodd" clip-rule="evenodd" d="M300 24.2433C300 21.7558 297.488 20 295 20C286.716 20 280 13.2843 280 5C280 2.51247 278.244 0 275.757 0H24.2433C21.7558 0 20 2.51246 20 5C20 13.2843 13.2843 20 5 20C2.51246 20 0 21.7558 0 24.2433V468.757C0 471.244 2.51247 473 5 473C13.2843 473 20 479.716 20 488C20 496.284 13.2843 503 5 503C2.51247 503 0 504.756 0 507.243V575.757C0 578.244 2.51245 580 5 580C13.2843 580 20 586.716 20 595C20 597.488 21.7558 600 24.2433 600H275.757C278.244 600 280 597.488 280 595C280 586.716 286.716 580 295 580C297.488 580 300 578.244 300 575.757V507.243C300 504.756 297.488 503 295 503C286.716 503 280 496.284 280 488C280 479.716 286.716 473 295 473C297.488 473 300 471.244 300 468.757V24.2433ZM280 487C280 487.552 279.552 488 279 488H273C272.448 488 272 487.552 272 487C272 486.448 272.448 486 273 486H279C279.552 486 280 486.448 280 487ZM267 488C267.552 488 268 487.552 268 487C268 486.448 267.552 486 267 486H261C260.448 486 260 486.448 260 487C260 487.552 260.448 488 261 488H267ZM256 487C256 487.552 255.552 488 255 488H249C248.448 488 248 487.552 248 487C248 486.448 248.448 486 249 486H255C255.552 486 256 486.448 256 487ZM243 488C243.552 488 244 487.552 244 487C244 486.448 243.552 486 243 486H237C236.448 486 236 486.448 236 487C236 487.552 236.448 488 237 488H243ZM232 487C232 487.552 231.552 488 231 488H225C224.448 488 224 487.552 224 487C224 486.448 224.448 486 225 486H231C231.552 486 232 486.448 232 487ZM219 488C219.552 488 220 487.552 220 487C220 486.448 219.552 486 219 486H213C212.448 486 212 486.448 212 487C212 487.552 212.448 488 213 488H219ZM208 487C208 487.552 207.552 488 207 488H201C200.448 488 200 487.552 200 487C200 486.448 200.448 486 201 486H207C207.552 486 208 486.448 208 487ZM195 488C195.552 488 196 487.552 196 487C196 486.448 195.552 486 195 486H189C188.448 486 188 486.448 188 487C188 487.552 188.448 488 189 488H195ZM184 487C184 487.552 183.552 488 183 488H177C176.448 488 176 487.552 176 487C176 486.448 176.448 486 177 486H183C183.552 486 184 486.448 184 487ZM171 488C171.552 488 172 487.552 172 487C172 486.448 171.552 486 171 486H165C164.448 486 164 486.448 164 487C164 487.552 164.448 488 165 488H171ZM160 487C160 487.552 159.552 488 159 488H153C152.448 488 152 487.552 152 487C152 486.448 152.448 486 153 486H159C159.552 486 160 486.448 160 487ZM147 488C147.552 488 148 487.552 148 487C148 486.448 147.552 486 147 486H141C140.448 486 140 486.448 140 487C140 487.552 140.448 488 141 488H147ZM136 487C136 487.552 135.552 488 135 488H129C128.448 488 128 487.552 128 487C128 486.448 128.448 486 129 486H135C135.552 486 136 486.448 136 487ZM123 488C123.552 488 124 487.552 124 487C124 486.448 123.552 486 123 486H117C116.448 486 116 486.448 116 487C116 487.552 116.448 488 117 488H123ZM112 487C112 487.552 111.552 488 111 488H105C104.448 488 104 487.552 104 487C104 486.448 104.448 486 105 486H111C111.552 486 112 486.448 112 487ZM99 488C99.5523 488 100 487.552 100 487C100 486.448 99.5523 486 99 486H93C92.4477 486 92 486.448 92 487C92 487.552 92.4477 488 93 488H99ZM88 487C88 487.552 87.5523 488 87 488H81C80.4477 488 80 487.552 80 487C80 486.448 80.4477 486 81 486H87C87.5523 486 88 486.448 88 487ZM75 488C75.5523 488 76 487.552 76 487C76 486.448 75.5523 486 75 486H69C68.4477 486 68 486.448 68 487C68 487.552 68.4477 488 69 488H75ZM64 487C64 487.552 63.5523 488 63 488H57C56.4477 488 56 487.552 56 487C56 486.448 56.4477 486 57 486H63C63.5523 486 64 486.448 64 487ZM51 488C51.5523 488 52 487.552 52 487C52 486.448 51.5523 486 51 486H45C44.4477 486 44 486.448 44 487C44 487.552 44.4477 488 45 488H51ZM40 487C40 487.552 39.5523 488 39 488H33C32.4477 488 32 487.552 32 487C32 486.448 32.4477 486 33 486H39C39.5523 486 40 486.448 40 487ZM27 488C27.5523 488 28 487.552 28 487C28 486.448 27.5523 486 27 486H21C20.4477 486 20 486.448 20 487C20 487.552 20.4477 488 21 488H27Z" fill="#072C31"/>
<path fill-rule="evenodd" clip-rule="evenodd" d="M300 24.2433C300 21.7558 297.488 20 295 20C286.716 20 280 13.2843 280 5C280 2.51247 278.244 0 275.757 0H24.2433C21.7558 0 20 2.51246 20 5C20 13.2843 13.2843 20 5 20C2.51246 20 0 21.7558 0 24.2433V468.757C0 471.244 2.51247 473 5 473C13.2843 473 20 479.716 20 488C20 496.284 13.2843 503 5 503C2.51247 503 0 504.756 0 507.243V575.757C0 578.244 2.51245 580 5 580C13.2843 580 20 586.716 20 595C20 597.488 21.7558 600 24.2433 600H275.757C278.244 600 280 597.488 280 595C280 586.716 286.716 580 295 580C297.488 580 300 578.244 300 575.757V507.243C300 504.756 297.488 503 295 503C286.716 503 280 496.284 280 488C280 479.716 286.716 473 295 473C297.488 473 300 471.244 300 468.757V24.2433ZM280 487C280 487.552 279.552 488 279 488H273C272.448 488 272 487.552 272 487C272 486.448 272.448 486 273 486H279C279.552 486 280 486.448 280 487ZM267 488C267.552 488 268 487.552 268 487C268 486.448 267.552 486 267 486H261C260.448 486 260 486.448 260 487C260 487.552 260.448 488 261 488H267ZM256 487C256 487.552 255.552 488 255 488H249C248.448 488 248 487.552 248 487C248 486.448 248.448 486 249 486H255C255.552 486 256 486.448 256 487ZM243 488C243.552 488 244 487.552 244 487C244 486.448 243.552 486 243 486H237C236.448 486 236 486.448 236 487C236 487.552 236.448 488 237 488H243ZM232 487C232 487.552 231.552 488 231 488H225C224.448 488 224 487.552 224 487C224 486.448 224.448 486 225 486H231C231.552 486 232 486.448 232 487ZM219 488C219.552 488 220 487.552 220 487C220 486.448 219.552 486 219 486H213C212.448 486 212 486.448 212 487C212 487.552 212.448 488 213 488H219ZM208 487C208 487.552 207.552 488 207 488H201C200.448 488 200 487.552 200 487C200 486.448 200.448 486 201 486H207C207.552 486 208 486.448 208 487ZM195 488C195.552 488 196 487.552 196 487C196 486.448 195.552 486 195 486H189C188.448 486 188 486.448 188 487C188 487.552 188.448 488 189 488H195ZM184 487C184 487.552 183.552 488 183 488H177C176.448 488 176 487.552 176 487C176 486.448 176.448 486 177 486H183C183.552 486 184 486.448 184 487ZM171 488C171.552 488 172 487.552 172 487C172 486.448 171.552 486 171 486H165C164.448 486 164 486.448 164 487C164 487.552 164.448 488 165 488H171ZM160 487C160 487.552 159.552 488 159 488H153C152.448 488 152 487.552 152 487C152 486.448 152.448 486 153 486H159C159.552 486 160 486.448 160 487ZM147 488C147.552 488 148 487.552 148 487C148 486.448 147.552 486 147 486H141C140.448 486 140 486.448 140 487C140 487.552 140.448 488 141 488H147ZM136 487C136 487.552 135.552 488 135 488H129C128.448 488 128 487.552 128 487C128 486.448 128.448 486 129 486H135C135.552 486 136 486.448 136 487ZM123 488C123.552 488 124 487.552 124 487C124 486.448 123.552 486 123 486H117C116.448 486 116 486.448 116 487C116 487.552 116.448 488 117 488H123ZM112 487C112 487.552 111.552 488 111 488H105C104.448 488 104 487.552 104 487C104 486.448 104.448 486 105 486H111C111.552 486 112 486.448 112 487ZM99 488C99.5523 488 100 487.552 100 487C100 486.448 99.5523 486 99 486H93C92.4477 486 92 486.448 92 487C92 487.552 92.4477 488 93 488H99ZM88 487C88 487.552 87.5523 488 87 488H81C80.4477 488 80 487.552 80 487C80 486.448 80.4477 486 81 486H87C87.5523 486 88 486.448 88 487ZM75 488C75.5523 488 76 487.552 76 487C76 486.448 75.5523 486 75 486H69C68.4477 486 68 486.448 68 487C68 487.552 68.4477 488 69 488H75ZM64 487C64 487.552 63.5523 488 63 488H57C56.4477 488 56 487.552 56 487C56 486.448 56.4477 486 57 486H63C63.5523 486 64 486.448 64 487ZM51 488C51.5523 488 52 487.552 52 487C52 486.448 51.5523 486 51 486H45C44.4477 486 44 486.448 44 487C44 487.552 44.4477 488 45 488H51ZM40 487C40 487.552 39.5523 488 39 488H33C32.4477 488 32 487.552 32 487C32 486.448 32.4477 486 33 486H39C39.5523 486 40 486.448 40 487ZM27 488C27.5523 488 28 487.552 28 487C28 486.448 27.5523 486 27 486H21C20.4477 486 20 486.448 20 487C20 487.552 20.4477 488 21 488H27Z" fill="url(#paint0_radial_4016_412)"/>
<path fill-rule="evenodd" clip-rule="evenodd" d="M300 24.2433C300 21.7558 297.488 20 295 20C286.716 20 280 13.2843 280 5C280 2.51247 278.244 0 275.757 0H24.2433C21.7558 0 20 2.51246 20 5C20 13.2843 13.2843 20 5 20C2.51246 20 0 21.7558 0 24.2433V468.757C0 471.244 2.51247 473 5 473C13.2843 473 20 479.716 20 488C20 496.284 13.2843 503 5 503C2.51247 503 0 504.756 0 507.243V575.757C0 578.244 2.51245 580 5 580C13.2843 580 20 586.716 20 595C20 597.488 21.7558 600 24.2433 600H275.757C278.244 600 280 597.488 280 595C280 586.716 286.716 580 295 580C297.488 580 300 578.244 300 575.757V507.243C300 504.756 297.488 503 295 503C286.716 503 280 496.284 280 488C280 479.716 286.716 473 295 473C297.488 473 300 471.244 300 468.757V24.2433ZM280 487C280 487.552 279.552 488 279 488H273C272.448 488 272 487.552 272 487C272 486.448 272.448 486 273 486H279C279.552 486 280 486.448 280 487ZM267 488C267.552 488 268 487.552 268 487C268 486.448 267.552 486 267 486H261C260.448 486 260 486.448 260 487C260 487.552 260.448 488 261 488H267ZM256 487C256 487.552 255.552 488 255 488H249C248.448 488 248 487.552 248 487C248 486.448 248.448 486 249 486H255C255.552 486 256 486.448 256 487ZM243 488C243.552 488 244 487.552 244 487C244 486.448 243.552 486 243 486H237C236.448 486 236 486.448 236 487C236 487.552 236.448 488 237 488H243ZM232 487C232 487.552 231.552 488 231 488H225C224.448 488 224 487.552 224 487C224 486.448 224.448 486 225 486H231C231.552 486 232 486.448 232 487ZM219 488C219.552 488 220 487.552 220 487C220 486.448 219.552 486 219 486H213C212.448 486 212 486.448 212 487C212 487.552 212.448 488 213 488H219ZM208 487C208 487.552 207.552 488 207 488H201C200.448 488 200 487.552 200 487C200 486.448 200.448 486 201 486H207C207.552 486 208 486.448 208 487ZM195 488C195.552 488 196 487.552 196 487C196 486.448 195.552 486 195 486H189C188.448 486 188 486.448 188 487C188 487.552 188.448 488 189 488H195ZM184 487C184 487.552 183.552 488 183 488H177C176.448 488 176 487.552 176 487C176 486.448 176.448 486 177 486H183C183.552 486 184 486.448 184 487ZM171 488C171.552 488 172 487.552 172 487C172 486.448 171.552 486 171 486H165C164.448 486 164 486.448 164 487C164 487.552 164.448 488 165 488H171ZM160 487C160 487.552 159.552 488 159 488H153C152.448 488 152 487.552 152 487C152 486.448 152.448 486 153 486H159C159.552 486 160 486.448 160 487ZM147 488C147.552 488 148 487.552 148 487C148 486.448 147.552 486 147 486H141C140.448 486 140 486.448 140 487C140 487.552 140.448 488 141 488H147ZM136 487C136 487.552 135.552 488 135 488H129C128.448 488 128 487.552 128 487C128 486.448 128.448 486 129 486H135C135.552 486 136 486.448 136 487ZM123 488C123.552 488 124 487.552 124 487C124 486.448 123.552 486 123 486H117C116.448 486 116 486.448 116 487C116 487.552 116.448 488 117 488H123ZM112 487C112 487.552 111.552 488 111 488H105C104.448 488 104 487.552 104 487C104 486.448 104.448 486 105 486H111C111.552 486 112 486.448 112 487ZM99 488C99.5523 488 100 487.552 100 487C100 486.448 99.5523 486 99 486H93C92.4477 486 92 486.448 92 487C92 487.552 92.4477 488 93 488H99ZM88 487C88 487.552 87.5523 488 87 488H81C80.4477 488 80 487.552 80 487C80 486.448 80.4477 486 81 486H87C87.5523 486 88 486.448 88 487ZM75 488C75.5523 488 76 487.552 76 487C76 486.448 75.5523 486 75 486H69C68.4477 486 68 486.448 68 487C68 487.552 68.4477 488 69 488H75ZM64 487C64 487.552 63.5523 488 63 488H57C56.4477 488 56 487.552 56 487C56 486.448 56.4477 486 57 486H63C63.5523 486 64 486.448 64 487ZM51 488C51.5523 488 52 487.552 52 487C52 486.448 51.5523 486 51 486H45C44.4477 486 44 486.448 44 487C44 487.552 44.4477 488 45 488H51ZM40 487C40 487.552 39.5523 488 39 488H33C32.4477 488 32 487.552 32 487C32 486.448 32.4477 486 33 486H39C39.5523 486 40 486.448 40 487ZM27 488C27.5523 488 28 487.552 28 487C28 486.448 27.5523 486 27 486H21C20.4477 486 20 486.448 20 487C20 487.552 20.4477 488 21 488H27Z" fill="url(#paint1_radial_4016_412)"/>
<path d="M272 5C272 17.7025 282.297 28 295 28V12C291.134 12 288 8.86599 288 5H272ZM24.2433 8H275.757V-8H24.2433V8ZM5 28C17.7025 28 28 17.7025 28 5H12C12 8.86599 8.86599 12 5 12V28ZM8 468.757V24.2433H-8V468.757H8ZM28 488C28 475.297 17.7025 465 5 465V481C8.86599 481 12 484.134 12 488H28ZM5 511C17.7025 511 28 500.703 28 488H12C12 491.866 8.86599 495 5 495V511ZM8 575.757V507.243H-8V575.757H8ZM28 595C28 582.297 17.7025 572 5 572V588C8.866 588 12 591.134 12 595H28ZM275.757 592H24.2433V608H275.757V592ZM288 595C288 591.134 291.134 588 295 588V572C282.297 572 272 582.297 272 595H288ZM292 507.243V575.757H308V507.243H292ZM272 488C272 500.703 282.297 511 295 511V495C291.134 495 288 491.866 288 488H272ZM295 465C282.297 465 272 475.297 272 488H288C288 484.134 291.134 481 295 481V465ZM292 24.2433V468.757H308V24.2433H292ZM279 496C283.971 496 288 491.971 288 487H272C272 483.134 275.134 480 279 480V496ZM273 496H279V480H273V496ZM264 487C264 491.971 268.029 496 273 496V480C276.866 480 280 483.134 280 487H264ZM273 478C268.029 478 264 482.029 264 487H280C280 490.866 276.866 494 273 494V478ZM279 478H273V494H279V478ZM288 487C288 482.029 283.971 478 279 478V494C275.134 494 272 490.866 272 487H288ZM260 487C260 483.134 263.134 480 267 480V496C271.971 496 276 491.971 276 487H260ZM267 494C263.134 494 260 490.866 260 487H276C276 482.029 271.971 478 267 478V494ZM261 494H267V478H261V494ZM268 487C268 490.866 264.866 494 261 494V478C256.029 478 252 482.029 252 487H268ZM261 480C264.866 480 268 483.134 268 487H252C252 491.971 256.029 496 261 496V480ZM267 480H261V496H267V480ZM255 496C259.971 496 264 491.97 264 487H248C248 483.134 251.134 480 255 480V496ZM249 496H255V480H249V496ZM240 487C240 491.97 244.029 496 249 496V480C252.866 480 256 483.134 256 487H240ZM249 478C244.029 478 240 482.03 240 487H256C256 490.866 252.866 494 249 494V478ZM255 478H249V494H255V478ZM264 487C264 482.03 259.971 478 255 478V494C251.134 494 248 490.866 248 487H264ZM236 487C236 483.134 239.134 480 243 480V496C247.971 496 252 491.97 252 487H236ZM243 494C239.134 494 236 490.866 236 487H252C252 482.03 247.971 478 243 478V494ZM237 494H243V478H237V494ZM244 487C244 490.866 240.866 494 237 494V478C232.029 478 228 482.03 228 487H244ZM237 480C240.866 480 244 483.134 244 487H228C228 491.97 232.029 496 237 496V480ZM243 480H237V496H243V480ZM231 496C235.971 496 240 491.97 240 487H224C224 483.134 227.134 480 231 480V496ZM225 496H231V480H225V496ZM216 487C216 491.97 220.029 496 225 496V480C228.866 480 232 483.134 232 487H216ZM225 478C220.029 478 216 482.03 216 487H232C232 490.866 228.866 494 225 494V478ZM231 478H225V494H231V478ZM240 487C240 482.03 235.971 478 231 478V494C227.134 494 224 490.866 224 487H240ZM212 487C212 483.134 215.134 480 219 480V496C223.971 496 228 491.97 228 487H212ZM219 494C215.134 494 212 490.866 212 487H228C228 482.03 223.971 478 219 478V494ZM213 494H219V478H213V494ZM220 487C220 490.866 216.866 494 213 494V478C208.029 478 204 482.03 204 487H220ZM213 480C216.866 480 220 483.134 220 487H204C204 491.97 208.029 496 213 496V480ZM219 480H213V496H219V480ZM207 496C211.971 496 216 491.97 216 487H200C200 483.134 203.134 480 207 480V496ZM201 496H207V480H201V496ZM192 487C192 491.97 196.029 496 201 496V480C204.866 480 208 483.134 208 487H192ZM201 478C196.029 478 192 482.03 192 487H208C208 490.866 204.866 494 201 494V478ZM207 478H201V494H207V478ZM216 487C216 482.03 211.971 478 207 478V494C203.134 494 200 490.866 200 487H216ZM188 487C188 483.134 191.134 480 195 480V496C199.971 496 204 491.97 204 487H188ZM195 494C191.134 494 188 490.866 188 487H204C204 482.03 199.971 478 195 478V494ZM189 494H195V478H189V494ZM196 487C196 490.866 192.866 494 189 494V478C184.029 478 180 482.03 180 487H196ZM189 480C192.866 480 196 483.134 196 487H180C180 491.97 184.029 496 189 496V480ZM195 480H189V496H195V480ZM183 496C187.971 496 192 491.97 192 487H176C176 483.134 179.134 480 183 480V496ZM177 496H183V480H177V496ZM168 487C168 491.97 172.029 496 177 496V480C180.866 480 184 483.134 184 487H168ZM177 478C172.029 478 168 482.03 168 487H184C184 490.866 180.866 494 177 494V478ZM183 478H177V494H183V478ZM192 487C192 482.03 187.971 478 183 478V494C179.134 494 176 490.866 176 487H192ZM164 487C164 483.134 167.134 480 171 480V496C175.971 496 180 491.97 180 487H164ZM171 494C167.134 494 164 490.866 164 487H180C180 482.03 175.971 478 171 478V494ZM165 494H171V478H165V494ZM172 487C172 490.866 168.866 494 165 494V478C160.029 478 156 482.03 156 487H172ZM165 480C168.866 480 172 483.134 172 487H156C156 491.97 160.029 496 165 496V480ZM171 480H165V496H171V480ZM159 496C163.971 496 168 491.97 168 487H152C152 483.134 155.134 480 159 480V496ZM153 496H159V480H153V496ZM144 487C144 491.97 148.029 496 153 496V480C156.866 480 160 483.134 160 487H144ZM153 478C148.029 478 144 482.03 144 487H160C160 490.866 156.866 494 153 494V478ZM159 478H153V494H159V478ZM168 487C168 482.03 163.971 478 159 478V494C155.134 494 152 490.866 152 487H168ZM140 487C140 483.134 143.134 480 147 480V496C151.971 496 156 491.97 156 487H140ZM147 494C143.134 494 140 490.866 140 487H156C156 482.03 151.971 478 147 478V494ZM141 494H147V478H141V494ZM148 487C148 490.866 144.866 494 141 494V478C136.029 478 132 482.03 132 487H148ZM141 480C144.866 480 148 483.134 148 487H132C132 491.97 136.029 496 141 496V480ZM147 480H141V496H147V480ZM135 496C139.971 496 144 491.97 144 487H128C128 483.134 131.134 480 135 480V496ZM129 496H135V480H129V496ZM120 487C120 491.97 124.029 496 129 496V480C132.866 480 136 483.134 136 487H120ZM129 478C124.029 478 120 482.03 120 487H136C136 490.866 132.866 494 129 494V478ZM135 478H129V494H135V478ZM144 487C144 482.03 139.971 478 135 478V494C131.134 494 128 490.866 128 487H144ZM116 487C116 483.134 119.134 480 123 480V496C127.971 496 132 491.971 132 487H116ZM123 494C119.134 494 116 490.866 116 487H132C132 482.029 127.971 478 123 478V494ZM117 494H123V478H117V494ZM124 487C124 490.866 120.866 494 117 494V478C112.029 478 108 482.029 108 487H124ZM117 480C120.866 480 124 483.134 124 487H108C108 491.971 112.029 496 117 496V480ZM123 480H117V496H123V480ZM111 496C115.971 496 120 491.971 120 487H104C104 483.134 107.134 480 111 480V496ZM105 496H111V480H105V496ZM96 487C96 491.971 100.029 496 105 496V480C108.866 480 112 483.134 112 487H96ZM105 478C100.029 478 96 482.029 96 487H112C112 490.866 108.866 494 105 494V478ZM111 478H105V494H111V478ZM120 487C120 482.029 115.971 478 111 478V494C107.134 494 104 490.866 104 487H120ZM92 487C92 483.134 95.134 480 99 480V496C103.971 496 108 491.971 108 487H92ZM99 494C95.134 494 92 490.866 92 487H108C108 482.029 103.971 478 99 478V494ZM93 494H99V478H93V494ZM100 487C100 490.866 96.866 494 93 494V478C88.0294 478 84 482.029 84 487H100ZM93 480C96.866 480 100 483.134 100 487H84C84 491.971 88.0294 496 93 496V480ZM99 480H93V496H99V480ZM87 496C91.9706 496 96 491.971 96 487H80C80 483.134 83.134 480 87 480V496ZM81 496H87V480H81V496ZM72 487C72 491.971 76.0294 496 81 496V480C84.866 480 88 483.134 88 487H72ZM81 478C76.0294 478 72 482.029 72 487H88C88 490.866 84.866 494 81 494V478ZM87 478H81V494H87V478ZM96 487C96 482.029 91.9706 478 87 478V494C83.134 494 80 490.866 80 487H96ZM68 487C68 483.134 71.134 480 75 480V496C79.9706 496 84 491.971 84 487H68ZM75 494C71.134 494 68 490.866 68 487H84C84 482.029 79.9706 478 75 478V494ZM69 494H75V478H69V494ZM76 487C76 490.866 72.866 494 69 494V478C64.0294 478 60 482.029 60 487H76ZM69 480C72.866 480 76 483.134 76 487H60C60 491.971 64.0294 496 69 496V480ZM75 480H69V496H75V480ZM63 496C67.9706 496 72 491.971 72 487H56C56 483.134 59.134 480 63 480V496ZM57 496H63V480H57V496ZM48 487C48 491.971 52.0294 496 57 496V480C60.866 480 64 483.134 64 487H48ZM57 478C52.0294 478 48 482.029 48 487H64C64 490.866 60.866 494 57 494V478ZM63 478H57V494H63V478ZM72 487C72 482.029 67.9706 478 63 478V494C59.134 494 56 490.866 56 487H72ZM44 487C44 483.134 47.134 480 51 480V496C55.9706 496 60 491.971 60 487H44ZM51 494C47.134 494 44 490.866 44 487H60C60 482.029 55.9706 478 51 478V494ZM45 494H51V478H45V494ZM52 487C52 490.866 48.866 494 45 494V478C40.0294 478 36 482.029 36 487H52ZM45 480C48.866 480 52 483.134 52 487H36C36 491.971 40.0294 496 45 496V480ZM51 480H45V496H51V480ZM39 496C43.9706 496 48 491.971 48 487H32C32 483.134 35.134 480 39 480V496ZM33 496H39V480H33V496ZM24 487C24 491.971 28.0294 496 33 496V480C36.866 480 40 483.134 40 487H24ZM33 478C28.0294 478 24 482.029 24 487H40C40 490.866 36.866 494 33 494V478ZM39 478H33V494H39V478ZM48 487C48 482.029 43.9706 478 39 478V494C35.134 494 32 490.866 32 487H48ZM20 487C20 483.134 23.134 480 27 480V496C31.9706 496 36 491.971 36 487H20ZM27 494C23.134 494 20 490.866 20 487H36C36 482.029 31.9706 478 27 478V494ZM21 494H27V478H21V494ZM28 487C28 490.866 24.866 494 21 494V478C16.0294 478 12 482.029 12 487H28ZM21 480C24.866 480 28 483.134 28 487H12C12 491.971 16.0294 496 21 496V480ZM27 480H21V496H27V480ZM295 481C298.031 481 301.047 479.961 303.425 478.062C305.864 476.115 308 472.904 308 468.757H292C292 467.097 292.88 466.008 293.441 465.56C293.94 465.161 294.457 465 295 465V481ZM308 507.243C308 503.096 305.864 499.885 303.425 497.938C301.047 496.039 298.031 495 295 495V511C294.457 511 293.94 510.839 293.441 510.44C292.88 509.992 292 508.903 292 507.243H308ZM295 588C298.031 588 301.047 586.961 303.425 585.062C305.864 583.115 308 579.904 308 575.757H292C292 574.097 292.88 573.008 293.441 572.56C293.94 572.161 294.457 572 295 572V588ZM275.757 608C279.904 608 283.115 605.864 285.062 603.425C286.961 601.047 288 598.031 288 595H272C272 594.457 272.161 593.94 272.56 593.441C273.008 592.88 274.097 592 275.757 592V608ZM12 595C12 598.031 13.0388 601.047 14.9375 603.425C16.8852 605.864 20.0961 608 24.2433 608V592C25.903 592 26.9923 592.88 27.4402 593.441C27.8391 593.94 28 594.457 28 595H12ZM-8 575.757C-8 579.904 -5.8639 583.115 -3.42488 585.062C-1.04718 586.961 1.96917 588 5 588V572C5.54328 572 6.05963 572.161 6.55922 572.56C7.12012 573.008 8 574.097 8 575.757H-8ZM5 12C1.96914 12 -1.04721 13.0388 -3.42489 14.9375C-5.86388 16.8852 -8 20.0961 -8 24.2433H8C8 25.903 7.12011 26.9923 6.55924 27.4402C6.05967 27.8391 5.54332 28 5 28V12ZM24.2433 -8C20.0961 -8 16.8851 -5.86387 14.9375 -3.42487C13.0388 -1.04718 12 1.96917 12 5H28C28 5.54329 27.8391 6.05964 27.4402 6.55922C26.9923 7.1201 25.903 8 24.2433 8V-8ZM-8 468.757C-8 472.904 -5.86387 476.115 -3.42488 478.062C-1.0472 479.961 1.96915 481 5 481V465C5.54332 465 6.05966 465.161 6.55923 465.56C7.1201 466.008 8 467.097 8 468.757H-8ZM288 5C288 1.96917 286.961 -1.04718 285.063 -3.42487C283.115 -5.86386 279.904 -8 275.757 -8V8C274.097 8 273.008 7.12009 272.56 6.55922C272.161 6.05965 272 5.5433 272 5H288ZM5 495C1.96915 495 -1.0472 496.039 -3.42488 497.938C-5.86387 499.885 -8 503.096 -8 507.243H8C8 508.903 7.1201 509.992 6.55923 510.44C6.05967 510.839 5.54332 511 5 511V495ZM295 28C294.457 28 293.94 27.8391 293.441 27.4402C292.88 26.9923 292 25.903 292 24.2433H308C308 20.0961 305.864 16.8851 303.425 14.9375C301.047 13.0388 298.031 12 295 12V28Z" fill="#24A0B5" mask="url(#path-1-inside-1_4016_412)"/>
</g>
<defs>
<filter id="filter0_dd_4016_412" x="-4" y="0" width="308" height="608" filterUnits="userSpaceOnUse" color-interpolation-filters="sRGB">
<feFlood flood-opacity="0" result="BackgroundImageFix"/>
<feColorMatrix in="SourceAlpha" type="matrix" values="0 0 0 0 0 0 0 0 0 0 0 0 0 0 0 0 0 0 127 0" result="hardAlpha"/>
<feOffset dy="4"/>
<feGaussianBlur stdDeviation="2"/>
<feComposite in2="hardAlpha" operator="out"/>
<feColorMatrix type="matrix" values="0 0 0 0 0 0 0 0 0 0 0 0 0 0 0 0 0 0 0.25 0"/>
<feBlend mode="normal" in2="BackgroundImageFix" result="effect1_dropShadow_4016_412"/>
<feColorMatrix in="SourceAlpha" type="matrix" values="0 0 0 0 0 0 0 0 0 0 0 0 0 0 0 0 0 0 127 0" result="hardAlpha"/>
<feOffset dy="4"/>
<feGaussianBlur stdDeviation="2"/>
<feComposite in2="hardAlpha" operator="out"/>
<feColorMatrix type="matrix" values="0 0 0 0 0 0 0 0 0 0 0 0 0 0 0 0 0 0 0.25 0"/>
<feBlend mode="normal" in2="effect1_dropShadow_4016_412" result="effect2_dropShadow_4016_412"/>
<feBlend mode="normal" in="SourceGraphic" in2="effect2_dropShadow_4016_412" result="shape"/>
</filter>
<radialGradient id="paint0_radial_4016_412" cx="0" cy="0" r="1" gradientUnits="userSpaceOnUse" gradientTransform="translate(150 -6.2645e-06) rotate(90) scale(83.5 150)">
<stop stop-color="#24A0B5" stop-opacity="0.5"/>
<stop offset="1" stop-color="#24A0B5" stop-opacity="0"/>
</radialGradient>
<radialGradient id="paint1_radial_4016_412" cx="0" cy="0" r="1" gradientUnits="userSpaceOnUse" gradientTransform="translate(150 619.5) rotate(-90) scale(217 150)">
<stop stop-color="#24A0B5" stop-opacity="0.5"/>
<stop offset="1" stop-color="#24A0B5" stop-opacity="0"/>
</radialGradient>
</defs>
</svg>
